<svg width="129" height="205" viewBox="0 0 129 205" fill="none" xmlns="http://www.w3.org/2000/svg">
<path d="M104.258 0C104.258 0 63.3162 32.9161 65.7381 50.703C65.7381 50.703 76.3485 54.1786 104.258 0Z" fill="#3A52EE" fill-opacity="0.15"/>
<path d="M49.246 9.81348C49.246 9.81348 46.3627 50.4986 59.6257 60.312C59.6257 60.2098 68.5061 57.1431 49.246 9.81348Z" fill="#3A52EE" fill-opacity="0.15"/>
<path d="M33.0996 50.1919C33.0996 50.1919 25.3725 90.3658 37.3668 101.304C37.3668 101.406 46.4779 99.1571 33.0996 50.1919Z" fill="#3A52EE" fill-opacity="0.15"/>
<path d="M111.409 58.4719C111.409 58.4719 65.9688 64.7076 58.011 78.2011C58.011 78.2011 63.3162 85.1523 111.409 58.4719Z" fill="#3A52EE" fill-opacity="0.15"/>
<path d="M110.486 77.3833C110.486 77.3833 56.2811 85.6634 46.478 102.326C46.478 102.326 52.5905 110.81 110.486 77.3833Z" fill="#3A52EE" fill-opacity="0.15"/>
<path d="M17.4149 80.7568C17.4149 80.7568 13.8396 121.34 26.7566 131.358C26.7566 131.358 35.637 128.393 17.4149 80.7568Z" fill="#3A52EE" fill-opacity="0.15"/>
<path d="M54.0897 20.8536C54.0897 20.8536 36.6749 63.6854 47.2852 77.9967C47.2852 77.8945 57.7803 77.0767 54.0897 20.8536Z" fill="#3A52EE" fill-opacity="0.15"/>
<path d="M128.132 43.5474C128.132 43.5474 62.5089 48.1474 64.7002 60.9254C64.7002 60.9254 65.8535 77.6901 128.132 43.5474Z" fill="#3A52EE" fill-opacity="0.15"/>
<path d="M96.6466 112.753C96.6466 112.753 31.0238 117.353 33.2151 130.131C33.2151 130.131 34.253 146.896 96.6466 112.753Z" fill="#3A52EE" fill-opacity="0.15"/>
<path d="M11.7637 115.922C11.7637 115.922 -7.84246 171.634 6.34314 174.598C6.45847 174.598 24.3346 179.914 11.7637 115.922Z" fill="#3A52EE" fill-opacity="0.15"/>
<path d="M0 204.039C1.72995 198.11 4.95919 189.216 9.11108 178.687L7.03514 175.007L8.18844 174.496L9.68773 177.154C14.6469 164.58 20.8747 149.86 27.3332 134.935L26.0646 131.46L27.3332 131.153L28.1405 133.198C31.7158 124.918 35.4063 116.637 38.9816 108.664L36.7903 101.508L38.0589 101.202L39.7889 106.824C42.7874 99.9749 45.786 93.4326 48.554 87.2992L46.824 77.8946L48.0926 77.6901L49.4766 85.1525C53.3978 76.3612 56.973 68.6945 59.741 62.6632L59.1643 60.2099L60.433 60.0054L60.5483 60.721C63.8928 53.4631 65.8535 49.0675 65.9688 48.863L67.1221 49.2719C67.0068 49.4764 64.9308 54.0765 61.4709 61.5388L64.3542 60.3121L64.9308 61.3343L60.6636 63.1744C58.703 67.57 56.2811 72.7834 53.6285 78.6102L57.665 77.5879L58.011 78.7124L52.9365 80.0413C49.8226 86.7881 46.478 94.3526 42.9028 102.326L46.0167 101.815L46.2474 102.939L42.3261 103.655C38.5202 112.242 34.4837 121.237 30.5625 130.335L32.7537 129.722L33.2151 130.847L29.9858 131.869C17.1842 161.309 4.95919 190.75 1.03797 204.55L0 204.039Z" fill="#3A52EE" fill-opacity="0.15"/>
</svg>
