<svg width="15" height="15" viewBox="0 0 15 15" fill="none" xmlns="http://www.w3.org/2000/svg">
<path d="M8.12642 0.625769C8.12642 0.460069 8.19224 0.301156 8.30941 0.183989C8.42658 0.0668217 8.58549 0.000997739 8.75119 0.000997739C10.4076 0.00281682 11.9957 0.66164 13.167 1.83292C14.3383 3.0042 14.9971 4.59227 14.9989 6.24871C14.9989 6.41441 14.9331 6.57332 14.8159 6.69049C14.6987 6.80766 14.5398 6.87348 14.3741 6.87348C14.2084 6.87348 14.0495 6.80766 13.9324 6.69049C13.8152 6.57332 13.7494 6.41441 13.7494 6.24871C13.7479 4.92357 13.2208 3.65313 12.2838 2.71611C11.3468 1.7791 10.0763 1.25203 8.75119 1.25054C8.58549 1.25054 8.42658 1.18472 8.30941 1.06755C8.19224 0.950382 8.12642 0.791469 8.12642 0.625769ZM8.75119 3.74963C9.41399 3.74963 10.0496 4.01292 10.5183 4.48159C10.987 4.95026 11.2503 5.58591 11.2503 6.24871C11.2503 6.41441 11.3161 6.57332 11.4333 6.69049C11.5504 6.80766 11.7093 6.87348 11.875 6.87348C12.0407 6.87348 12.1997 6.80766 12.3168 6.69049C12.434 6.57332 12.4998 6.41441 12.4998 6.24871C12.4988 5.25482 12.1036 4.30192 11.4008 3.59913C10.698 2.89634 9.74508 2.50108 8.75119 2.50008C8.58549 2.50008 8.42658 2.56591 8.30941 2.68307C8.19224 2.80024 8.12642 2.95915 8.12642 3.12485C8.12642 3.29055 8.19224 3.44947 8.30941 3.56663C8.42658 3.6838 8.58549 3.74963 8.75119 3.74963ZM14.4322 10.459C14.7943 10.8221 14.9976 11.3139 14.9976 11.8267C14.9976 12.3394 14.7943 12.8312 14.4322 13.1943L13.8637 13.8497C8.74682 18.7485 -3.70487 6.29994 1.11836 1.16682L1.83685 0.54205C2.20032 0.190102 2.68774 -0.00459454 3.19367 8.23508e-05C3.69959 0.00475924 4.18333 0.208433 4.54023 0.567041C4.5596 0.586408 5.7173 2.09023 5.7173 2.09023C6.06082 2.45112 6.25205 2.93051 6.25123 3.42874C6.25042 3.92698 6.05762 4.40574 5.71293 4.7655L4.98944 5.67517C5.38983 6.64801 5.9785 7.53214 6.72163 8.27678C7.46476 9.02141 8.3477 9.61186 9.31973 10.0142L10.235 9.28635C10.5948 8.94192 11.0735 8.74935 11.5716 8.74866C12.0697 8.74796 12.5489 8.93918 12.9097 9.2826C12.9097 9.2826 14.4129 10.4397 14.4322 10.459ZM13.5726 11.3675C13.5726 11.3675 12.0775 10.2173 12.0581 10.1979C11.9294 10.0703 11.7555 9.99866 11.5742 9.99866C11.393 9.99866 11.219 10.0703 11.0903 10.1979C11.0735 10.2154 9.8133 11.2194 9.8133 11.2194C9.72838 11.287 9.62732 11.3313 9.52006 11.3479C9.41281 11.3646 9.30307 11.353 9.20165 11.3144C7.9424 10.8455 6.79862 10.1115 5.84778 9.16207C4.89694 8.21263 4.16125 7.06993 3.69054 5.81137C3.64881 5.70857 3.6352 5.5965 3.65112 5.4867C3.66705 5.3769 3.71192 5.27331 3.78114 5.1866C3.78114 5.1866 4.78514 3.92581 4.80201 3.90957C4.92963 3.78085 5.00124 3.60694 5.00124 3.42568C5.00124 3.24443 4.92963 3.07051 4.80201 2.9418C4.78264 2.92305 3.63244 1.42673 3.63244 1.42673C3.5018 1.30959 3.3313 1.24685 3.1559 1.25138C2.98049 1.25591 2.81346 1.32736 2.68904 1.45109L1.97055 2.07586C-1.55441 6.31431 9.23601 16.5062 12.9503 12.9962L13.5194 12.3402C13.6528 12.2167 13.7329 12.0461 13.7428 11.8646C13.7528 11.6831 13.6917 11.5048 13.5726 11.3675Z" fill="white"/>
</svg>
