<svg width="58" height="64" viewBox="0 0 58 64" fill="none" xmlns="http://www.w3.org/2000/svg">
<path d="M57 24.4062C56.6501 25.0042 56.1252 25.1792 55.4546 25.1792C53.2676 25.15 51.0807 25.1792 48.8938 25.1646C48.5001 25.1646 48.2231 25.2812 47.9315 25.5437C45.7883 27.4688 43.6306 29.3646 41.4874 31.2896C41.0791 31.6542 40.6563 31.9021 40.1023 31.6542C39.5191 31.4062 39.4171 30.9104 39.4317 30.3417C39.4317 28.65 39.4317 26.9583 39.4317 25.1792C39.1838 25.1792 38.9505 25.1792 38.7173 25.1792C26.6746 25.1792 14.6319 25.1792 2.60375 25.1792C1.33533 25.1792 1.01458 24.8583 1.01458 23.6042C1.01458 16.575 1.01458 9.54583 1 2.50208C1 1.81667 1.18953 1.32083 1.77272 1C20.1721 1 38.5569 1 57 1C57 8.80208 57 16.6042 57 24.4062ZM54.7839 3.23125C37.5655 3.23125 20.3908 3.23125 3.24525 3.23125C3.24525 9.82292 3.24525 16.3708 3.24525 22.9625C3.52226 22.9625 3.75553 22.9625 3.9888 22.9625C16.0169 22.9625 28.045 22.9625 40.0586 22.9625C41.327 22.9625 41.6186 23.2542 41.6186 24.5521C41.6186 25.5729 41.6186 26.5938 41.6186 27.6146C41.6186 27.7604 41.6477 27.9208 41.6623 28.1396C41.8373 27.9937 41.9539 27.9062 42.056 27.8187C43.6889 26.3604 45.3364 24.9167 46.9547 23.4583C47.3338 23.1229 47.7274 22.9625 48.2377 22.9771C50.2205 22.9917 52.2033 22.9917 54.2007 22.9917C54.3903 22.9917 54.5798 22.9917 54.7985 22.9917C54.7839 16.3417 54.7839 9.80833 54.7839 3.23125Z" fill="#3A52EE" stroke="#3A52EE" stroke-width="0.8"/>
<path d="M27.5445 63C26.4534 62.7401 25.3449 62.5669 24.2883 62.2203C17.6547 60.0893 13.4806 53.6787 14.0521 46.5232C14.5717 39.974 19.8197 34.3432 26.436 33.217C34.9922 31.7616 42.9768 37.791 43.9121 46.4019C44.7954 54.5277 38.9239 61.8911 30.7834 62.8787C30.6622 62.896 30.5409 62.948 30.4197 63C29.4497 63 28.4971 63 27.5445 63ZM38.6641 55.6365C42.3879 51.2358 42.6131 43.3699 37.0187 38.588C31.5282 33.91 23.3184 34.8629 19.0403 40.6324C15.0221 46.0554 16.6328 52.8991 19.3348 55.5499C19.9929 52.1541 21.9155 49.7111 24.9985 48.1865C23.2665 45.2237 23.457 42.6595 25.5527 40.823C27.4579 39.1597 30.2465 39.0904 32.2383 40.6671C33.2255 41.4467 33.8491 42.4689 34.0916 43.6991C34.4206 45.345 33.9876 46.8177 32.9484 48.1518C36.0834 49.7111 37.9886 52.1541 38.6641 55.6365ZM28.8955 60.4011C31.0778 60.3665 33.0697 59.8294 34.9749 58.8591C35.8928 58.3913 36.1873 57.8196 36.1526 56.7974C35.9621 52.5526 31.9612 49.2953 27.787 50.0576C24.0632 50.7333 21.5518 53.9733 21.8462 57.7676C21.8635 57.9755 22.054 58.2181 22.2446 58.3394C24.2537 59.7081 26.5226 60.3492 28.8955 60.4011ZM26.3841 44.6866C26.3668 46.1247 27.4926 47.3028 28.9301 47.3375C30.3504 47.3721 31.5628 46.2286 31.5974 44.8079C31.6321 43.3526 30.4716 42.1398 29.0167 42.1224C27.5965 42.1051 26.4014 43.2659 26.3841 44.6866Z" fill="#3A52EE" stroke="#3A52EE" stroke-width="0.8"/>
<path d="M40.6854 18.3979C40.8458 17.4791 40.9916 16.4291 41.2102 15.3937C41.3123 14.8687 41.2248 14.5187 40.8166 14.1541C40.0876 13.5125 39.4315 12.8125 38.7317 12.1416C38.3672 11.7916 38.1923 11.3979 38.3527 10.9166C38.4985 10.45 38.8484 10.2312 39.3295 10.1583C40.3792 10.0125 41.4144 9.85204 42.4641 9.7062C42.8286 9.66245 43.0327 9.51662 43.1931 9.16662C43.6159 8.24787 44.097 7.3437 44.5344 6.42495C44.7531 5.95828 45.0738 5.63745 45.6133 5.63745C46.1527 5.63745 46.4735 5.95828 46.6922 6.42495C47.1295 7.32912 47.5961 8.20412 48.0043 9.12287C48.1793 9.50203 48.4125 9.66245 48.8062 9.7062C49.8413 9.83745 50.8619 10.0125 51.8825 10.1583C52.3636 10.2312 52.6989 10.45 52.8593 10.9166C53.0343 11.4125 52.8447 11.8062 52.4948 12.1416C51.7221 12.8854 50.9494 13.6291 50.2058 14.402C50.06 14.5479 49.958 14.8395 49.9871 15.0437C50.1329 16.0937 50.3225 17.1291 50.512 18.1645C50.5995 18.675 50.5266 19.1125 50.1038 19.4333C49.6664 19.7541 49.2144 19.6812 48.777 19.4333C47.8585 18.952 46.94 18.4708 46.0361 17.975C45.7445 17.8145 45.5258 17.8145 45.2342 17.975C44.272 18.5 43.3097 19.0104 42.3329 19.4916C41.4727 19.9145 40.6562 19.4041 40.6854 18.3979ZM43.2222 16.5604C43.8054 16.2541 44.3303 16.0208 44.8114 15.7145C45.3508 15.3791 45.8611 15.3937 46.4006 15.7145C46.8817 15.9916 47.3774 16.225 47.9752 16.5312C47.8731 15.8458 47.8002 15.277 47.669 14.7083C47.5378 14.125 47.7127 13.6875 48.1355 13.2937C48.5583 12.9 48.9374 12.477 49.4039 12.0104C48.7333 11.9083 48.1501 11.7916 47.5523 11.7333C46.9983 11.675 46.663 11.3979 46.4297 10.902C46.1819 10.3625 45.9049 9.83745 45.5987 9.22495C45.2925 9.85204 45.0009 10.3625 44.7677 10.902C44.549 11.3979 44.1991 11.6604 43.645 11.7333C43.0473 11.8062 42.4495 11.9229 41.8226 12.0104C42.26 12.477 42.639 12.9 43.0473 13.2791C43.5138 13.6875 43.6305 14.1687 43.5138 14.752C43.4263 15.3354 43.3389 15.9041 43.2222 16.5604Z" fill="#3A52EE"/>
<path d="M16.1336 19.8271C16.0169 19.7833 15.7691 19.725 15.5504 19.6083C14.6465 19.1417 13.7425 18.675 12.8532 18.1792C12.5324 18.0042 12.27 18.0188 11.9493 18.1938C11.0599 18.6896 10.1414 19.1417 9.25204 19.6229C8.80007 19.8708 8.34811 19.9438 7.9253 19.6229C7.48792 19.3021 7.4296 18.8646 7.51708 18.3542C7.70661 17.3188 7.89614 16.2688 8.04194 15.2333C8.0711 15.0292 7.98362 14.7375 7.83783 14.5917C7.10885 13.8333 6.33613 13.1042 5.578 12.375C5.21351 12.025 4.99482 11.6313 5.16977 11.1063C5.34472 10.5813 5.75295 10.3917 6.24866 10.3188C7.29838 10.1729 8.34811 10.0417 9.38326 9.85209C9.58737 9.82292 9.83522 9.63334 9.93728 9.45834C10.433 8.52501 10.8849 7.57709 11.3515 6.62917C11.5702 6.17709 11.8909 5.84167 12.4304 5.84167C12.9698 5.84167 13.2906 6.16251 13.5093 6.62917C13.9467 7.54792 14.4132 8.45209 14.8506 9.37084C14.9964 9.69167 15.1859 9.86667 15.5796 9.91042C16.6147 10.0125 17.6353 10.1875 18.6558 10.3479C19.137 10.4208 19.5306 10.6396 19.691 11.1208C19.8514 11.6021 19.6764 12.0104 19.3265 12.3458C18.6121 13.0313 17.9414 13.7458 17.1979 14.4021C16.8042 14.7521 16.7313 15.1021 16.8334 15.5979C17.0375 16.575 17.1979 17.5667 17.3291 18.5583C17.4166 19.2875 16.95 19.8125 16.1336 19.8271ZM12.4012 9.41459C12.095 10.0271 11.818 10.5521 11.5702 11.0917C11.3223 11.6313 10.9287 11.8938 10.3455 11.9521C9.7769 12.0104 9.2083 12.1125 8.55222 12.2146C9.04793 12.6958 9.45615 13.1333 9.89354 13.5417C10.2872 13.9063 10.4476 14.3146 10.3309 14.8688C10.1997 15.4521 10.1414 16.0354 10.0248 16.7354C10.6079 16.4292 11.1036 16.2104 11.5556 15.9333C12.1388 15.5833 12.6782 15.5979 13.2468 15.9479C13.7134 16.225 14.2091 16.4583 14.7631 16.75C14.661 16.1521 14.6027 15.6271 14.4861 15.1167C14.3257 14.4313 14.4569 13.8771 15.0255 13.4104C15.4338 13.075 15.8128 12.6813 16.294 12.2292C15.5504 12.1271 14.9818 12.025 14.4132 11.9521C13.8592 11.8938 13.4655 11.6313 13.2323 11.1208C12.999 10.5521 12.722 10.0271 12.4012 9.41459Z" fill="#3A52EE"/>
<path d="M24.1961 18.4709C24.3856 17.3625 24.5898 16.2104 24.7647 15.0584C24.7939 14.8542 24.7064 14.5625 24.5606 14.4167C23.817 13.6438 23.0297 12.9 22.257 12.1563C21.9071 11.8208 21.7176 11.4271 21.878 10.9313C22.0383 10.4354 22.4028 10.2167 22.8985 10.1583C23.9045 10.0271 24.9105 9.8521 25.9311 9.73543C26.3247 9.69168 26.5726 9.54585 26.7475 9.1521C27.1558 8.23335 27.6223 7.35835 28.0597 6.45418C28.2784 5.98752 28.5991 5.66668 29.1386 5.6521C29.678 5.6521 29.9988 5.95835 30.2175 6.42502C30.6694 7.37293 31.136 8.32085 31.6317 9.25418C31.7337 9.44377 31.9816 9.61877 32.1711 9.66252C33.25 9.8521 34.3289 10.0125 35.4078 10.1583C35.8889 10.2313 36.2388 10.45 36.3846 10.9021C36.545 11.3833 36.3846 11.7917 36.0201 12.1417C35.2911 12.8563 34.5767 13.5854 33.8186 14.2709C33.4833 14.5771 33.425 14.8688 33.5124 15.2771C33.702 16.225 33.8915 17.1729 33.9936 18.1354C34.0373 18.5146 33.9498 18.9813 33.7603 19.3021C33.4979 19.7542 32.9147 19.7833 32.3315 19.4771C31.3838 18.9813 30.4362 18.4563 29.4739 17.9896C29.2844 17.9021 28.9782 17.9021 28.7887 17.9896C27.7973 18.4708 26.8204 19.025 25.829 19.5209C25.0126 19.9146 24.1815 19.3896 24.1961 18.4709ZM29.1386 9.22502C28.847 9.82293 28.57 10.3333 28.3367 10.8583C28.1034 11.3833 27.7389 11.6896 27.1412 11.7479C26.558 11.8063 25.9894 11.9229 25.3771 12.025C25.8436 12.5208 26.2518 12.9584 26.6746 13.3813C27.0391 13.7459 27.1849 14.1396 27.0829 14.6646C26.9516 15.2479 26.8933 15.8604 26.7767 16.5458C27.389 16.225 27.8993 15.9917 28.3804 15.7C28.9053 15.3792 29.401 15.3938 29.9259 15.7C30.4216 15.9917 30.9464 16.2396 31.5296 16.5458C31.413 15.9042 31.3255 15.3354 31.2089 14.7667C31.0922 14.1834 31.2089 13.7021 31.69 13.2938C32.1274 12.9292 32.521 12.5063 33.0313 12.0396C32.2732 11.9229 31.6608 11.8208 31.0631 11.7333C30.5674 11.675 30.232 11.4125 30.0133 10.975C29.7363 10.4208 29.4593 9.86668 29.1386 9.22502Z" fill="#3A52EE"/>
</svg>
