<svg width="56" height="54" viewBox="0 0 56 54" fill="none" xmlns="http://www.w3.org/2000/svg">
<path d="M0.0291439 32.3284C0.582878 31.187 1.03461 30.935 2.3898 31.0388C7.82514 31.4539 11.9053 34.0776 14.6594 38.8506C14.7031 38.9248 14.7468 39.0137 14.8342 39.1323C17.7486 33.9145 22.1056 31.1129 27.9927 31.0981C33.8944 31.0833 38.2659 33.8849 41.1949 39.1175C41.2823 38.9692 41.3698 38.8358 41.4572 38.7024C44.2696 33.9293 48.3934 31.3649 53.8579 31.0092C54.8925 30.935 55.6357 31.3056 56 32.3136C56 32.8769 56 33.4253 56 33.9886C55.9709 34.1072 55.9126 34.2258 55.898 34.3592C55.3005 39.1323 52.9982 42.8233 49.0492 45.4322C47.3151 46.5736 45.4208 47.2703 43.3661 47.5815C43.1475 47.6112 42.8124 47.5371 42.8124 47.9521C42.8124 48.8415 42.8124 49.7161 42.8124 50.6648C43.0601 50.6648 43.2495 50.6648 43.439 50.6648C46.9362 50.6648 50.4189 50.6796 53.9162 50.6499C54.9362 50.6351 55.6357 50.9909 55.9709 51.9989C55.9709 52.2212 55.9709 52.4436 55.9709 52.6659C55.7814 53.3033 55.3443 53.7184 54.7614 54C36.9107 54 19.0601 54 1.20947 54C0.626594 53.7184 0.189435 53.3033 0 52.6659C0 52.3991 0 52.1471 0 51.8803C0.422587 50.9019 1.18033 50.6351 2.20036 50.6351C5.63934 50.6796 9.07832 50.6499 12.5173 50.6499C12.7067 50.6499 12.9107 50.6499 13.1002 50.6499C13.1293 50.5462 13.1585 50.5017 13.1585 50.4424C13.1585 49.7013 13.1293 48.9601 13.1876 48.2189C13.2168 47.7149 13.0127 47.6112 12.5902 47.5371C6.4408 46.3809 2.41894 42.7343 0.568306 36.6716C0.306011 35.8119 0.204007 34.8928 0.0291439 33.9886C0.0291439 33.4402 0.0291439 32.8769 0.0291439 32.3284ZM16.4809 50.6203C24.204 50.6203 31.8543 50.6203 39.5337 50.6203C39.5337 49.7754 39.5046 48.9897 39.5483 48.1893C39.5628 47.7594 39.4025 47.626 39.0091 47.5667C34.929 46.9293 31.6648 44.8837 29.2022 41.5188C28.7796 40.9259 28.4153 40.3033 28.0219 39.6808C27.9781 39.7104 27.9344 39.7252 27.9199 39.74C27.8616 39.829 27.8179 39.9327 27.7596 40.0217C26.5355 42.2155 24.8743 44.0091 22.776 45.3729C20.9982 46.5291 19.0747 47.2703 16.9909 47.5667C16.7577 47.5964 16.4663 47.5519 16.4663 47.9669C16.4954 48.8415 16.4809 49.7161 16.4809 50.6203ZM16.6703 44.2018C20.8962 44.0833 26.4044 38.4356 26.1421 34.5519C21.6685 35.0707 17.2969 39.1916 16.6703 44.2018ZM43.0018 44.2018C47.1257 44.187 52.6193 38.5838 52.4882 34.5667C48.3934 34.9818 43.7304 38.821 43.0018 44.2018ZM3.45355 34.5667C4.02186 37.7241 5.53734 40.244 8.01457 42.1266C9.50091 43.2532 11.1475 43.9795 13.0273 44.2463C12.1676 38.4356 7.22769 34.8928 3.45355 34.5667ZM39.388 44.2018C38.8488 41.1483 37.4062 38.6876 35.0455 36.805C33.5155 35.5895 31.7814 34.8039 29.8142 34.5074C30.5719 39.9179 35.1913 43.772 39.388 44.2018Z" fill="#3A52EE"/>
<path d="M26.6712 0C26.7586 0.0582341 26.8459 0.116468 26.9333 0.160144C27.9815 0.727927 28.1853 1.95084 27.3555 2.8098C26.4528 3.74154 25.5211 4.62961 24.6767 5.47401C25.0843 6.60957 25.5648 7.65779 25.8268 8.74968C27.3409 15.039 22.8423 21.5757 16.4366 22.4638C11.8798 23.0898 7.36661 20.8915 5.06636 16.9316C2.76611 12.9717 3.04273 8.05087 5.85252 4.44035C7.81793 1.93628 10.4385 0.524107 13.5831 0.10191C13.7287 0.0727927 13.8597 0.0291171 14.0053 0C14.6604 0 15.3156 0 15.9707 0C16.0581 0.0291171 16.1308 0.0727927 16.2182 0.0873512C18.5184 0.349405 20.513 1.26659 22.2309 2.78068C22.3182 2.85347 22.4347 2.91171 22.5803 3.02818C22.8569 2.737 23.0898 2.43128 23.3664 2.16922C24.1672 1.44129 24.9679 0.727927 25.7832 0C26.0889 0 26.3801 0 26.6712 0ZM22.129 8.07999C21.9543 8.25469 21.8087 8.38572 21.6631 8.51674C19.8433 10.3366 18.038 12.1418 16.2182 13.9616C15.2428 14.9371 14.3838 14.9371 13.3938 13.9471C12.6368 13.19 11.8652 12.433 11.1227 11.6614C10.3802 10.8898 10.3511 9.9726 11.0208 9.27379C11.7051 8.56042 12.6659 8.57498 13.4375 9.34658C13.8888 9.78333 14.3256 10.2638 14.6604 10.6132C16.4803 8.79335 18.2564 7.01721 20.0325 5.24107C17.281 2.62054 12.4621 2.62054 9.43392 5.29931C6.46398 7.9344 5.99811 12.8406 8.41483 16.1309C10.7442 19.2901 15.4757 20.2364 18.8387 18.2127C22.3473 16.1163 23.8469 11.5886 22.129 8.07999Z" fill="#3A52EE"/>
<path d="M41.1276 0.0582275C46.951 0.0727861 52.2649 4.09094 52.3959 11.3848C52.5124 17.4848 47.2859 22.5657 41.1276 22.5803C34.9694 22.5803 29.7429 17.4993 29.8593 11.3993C30.0049 4.06182 35.377 0.0727861 41.1276 0.0582275ZM41.1568 19.2464C45.7136 19.2318 49.1494 15.796 49.1639 11.2101C49.1785 6.87162 45.5098 3.2611 41.1131 3.27566C36.7746 3.29022 33.1496 6.87162 33.135 11.1664C33.1059 15.7669 36.5708 19.2464 41.1568 19.2464Z" fill="#3A52EE"/>
<path d="M41.1425 13.554C40.6329 14.0927 40.1962 14.5585 39.7448 15.0099C39.0169 15.7087 37.9978 15.7378 37.3572 15.0826C36.7021 14.4275 36.7312 13.423 37.43 12.695C37.8813 12.2437 38.3472 11.807 38.915 11.2392C38.3618 10.7296 37.8086 10.2929 37.3281 9.78334C36.4255 8.79336 36.935 7.30839 38.2453 7.04634C38.8422 6.92987 39.3226 7.16281 39.7303 7.57045C40.1962 8.03632 40.6329 8.51675 41.1425 9.05542C41.6374 8.53131 42.0596 8.06544 42.511 7.61412C43.268 6.85708 44.258 6.82796 44.9422 7.52677C45.5974 8.19646 45.5683 9.18644 44.8403 9.91437C44.4036 10.3657 43.9231 10.7879 43.4136 11.2829C43.9231 11.7779 44.3745 12.2146 44.8258 12.6514C45.5683 13.4084 45.6119 14.413 44.9277 15.0826C44.258 15.7378 43.2389 15.6941 42.4964 14.9516C42.0596 14.5149 41.6374 14.0636 41.1425 13.554Z" fill="#3A52EE"/>
</svg>
