<svg width="14" height="14" viewBox="0 0 14 14" fill="none" xmlns="http://www.w3.org/2000/svg">
<path fill-rule="evenodd" clip-rule="evenodd" d="M11.9367 2.03467C10.6265 0.723333 8.8847 0.000583333 7.02912 0C3.20537 0 0.0932865 3.1115 0.0915365 6.937C0.0909531 8.15967 0.41062 9.35317 1.01787 10.4055L0.0332031 14L3.71054 13.0352C4.72379 13.5882 5.86479 13.8792 7.02562 13.8798H7.02854C10.8517 13.8798 13.9644 10.7677 13.9661 6.94225C13.9673 5.089 13.2463 3.34542 11.9367 2.03467ZM7.02912 12.7079H7.02679C5.99195 12.7079 4.97754 12.4297 4.09204 11.9041L3.88145 11.7793L1.6992 12.3515L2.28195 10.2235L2.14487 10.0053C1.56737 9.08717 1.26287 8.02608 1.26345 6.937C1.26462 3.75783 3.8517 1.17133 7.03204 1.17133C8.57204 1.17133 10.0199 1.77217 11.1084 2.86183C12.1969 3.95208 12.796 5.4005 12.7954 6.94108C12.7936 10.1214 10.2071 12.7079 7.02912 12.7079ZM10.192 8.3895C10.0187 8.30258 9.16645 7.88317 9.0072 7.82542C8.84854 7.76767 8.73304 7.7385 8.61695 7.91175C8.50087 8.085 8.16954 8.47583 8.06804 8.59192C7.96712 8.70742 7.86562 8.722 7.69237 8.63508C7.51912 8.54817 6.96029 8.36558 6.2982 7.77467C5.78312 7.315 5.43487 6.74742 5.33395 6.57358C5.23304 6.39975 5.32345 6.30642 5.40979 6.22008C5.48795 6.1425 5.58304 6.01767 5.66995 5.91617C5.75745 5.81583 5.78604 5.7435 5.84437 5.62742C5.90212 5.51192 5.87354 5.41042 5.82979 5.3235C5.78604 5.23717 5.43954 4.38375 5.29545 4.03667C5.15487 3.69833 5.01195 3.74442 4.9052 3.73917C4.80429 3.73392 4.68879 3.73333 4.5727 3.73333C4.4572 3.73333 4.26937 3.7765 4.1107 3.95033C3.95204 4.12417 3.50404 4.54358 3.50404 5.39642C3.50404 6.24983 4.12529 7.07408 4.21162 7.18958C4.29795 7.30508 5.4337 9.05625 7.17262 9.807C7.5862 9.9855 7.90937 10.0922 8.16079 10.1722C8.57612 10.304 8.95412 10.2853 9.25279 10.241C9.58587 10.1914 10.2783 9.82158 10.423 9.41675C10.5676 9.01192 10.5676 8.66425 10.5239 8.5925C10.4807 8.51958 10.3652 8.47642 10.192 8.3895Z" fill="white"/>
</svg>
