<svg width="184" height="426" viewBox="0 0 184 426" fill="none" xmlns="http://www.w3.org/2000/svg">
<path d="M20.9937 350H19.1318C19.1318 332.297 21.9567 323.283 24.7173 314.594C27.5422 305.742 30.1744 297.297 30.1744 280C30.1744 262.703 27.5422 254.339 24.7173 245.406C21.9567 236.717 19.1318 227.703 19.1318 210C19.1318 192.297 21.9567 183.283 24.7173 174.594C27.5422 165.742 30.1744 157.297 30.1744 140C30.1744 122.703 27.5422 114.339 24.7173 105.406C21.9567 96.7169 19.1318 87.703 19.1318 70C19.1318 52.297 21.9567 43.2831 24.7173 34.594C27.5422 25.7425 30.1744 17.297 30.1744 0H32.0362C32.0362 17.703 29.2114 26.7169 26.4507 35.406C23.6259 44.2575 20.9937 52.703 20.9937 70C20.9937 87.297 23.6259 95.6613 26.4507 104.594C29.2114 113.283 32.0362 122.297 32.0362 140C32.0362 157.703 29.2114 166.717 26.4507 175.406C23.6259 184.258 20.9937 192.703 20.9937 210C20.9937 227.297 23.6259 235.661 26.4507 244.594C29.2114 253.283 32.0362 262.297 32.0362 280C32.0362 297.703 29.2114 306.717 26.4507 315.406C23.6259 324.339 20.9937 332.784 20.9937 350Z" fill="url(#paint0_linear_162_10614)" fill-opacity="0.16"/>
<path d="M41.7305 350H39.8687C39.8687 332.297 42.6935 323.283 45.4541 314.594C48.279 305.742 50.9112 297.297 50.9112 280C50.9112 262.703 48.279 254.339 45.4541 245.406C42.6935 236.717 39.8687 227.703 39.8687 210C39.8687 192.297 42.6935 183.283 45.4541 174.594C48.279 165.742 50.9112 157.297 50.9112 140C50.9112 122.703 48.279 114.339 45.4541 105.406C42.6935 96.7169 39.8687 87.703 39.8687 70C39.8687 52.297 42.6935 43.2831 45.4541 34.594C48.279 25.7425 50.9112 17.297 50.9112 0H52.773C52.773 17.703 49.9482 26.7169 47.1876 35.406C44.3627 44.5012 41.7305 52.8654 41.7305 70.1624C41.7305 87.4594 44.3627 95.8237 47.1876 104.756C49.9482 113.445 52.773 122.459 52.773 140.162C52.773 157.865 49.9482 166.879 47.1876 175.568C44.3627 184.42 41.7305 192.865 41.7305 210.162C41.7305 227.459 44.3627 235.824 47.1876 244.756C49.9482 253.445 52.773 262.459 52.773 280.162C52.773 297.865 49.9482 306.879 47.1876 315.568C44.3627 324.339 41.7305 332.784 41.7305 350Z" fill="url(#paint1_linear_162_10614)" fill-opacity="0.16"/>
<path d="M62.5318 350H60.6699C60.6699 332.297 63.4948 323.283 66.2554 314.594C69.0802 305.742 71.7125 297.297 71.7125 280C71.7125 262.703 69.0802 254.339 66.2554 245.406C63.4948 236.717 60.6699 227.703 60.6699 210C60.6699 192.297 63.4948 183.283 66.2554 174.594C69.0802 165.742 71.7125 157.297 71.7125 140C71.7125 122.703 69.0802 114.339 66.2554 105.406C63.4948 96.7169 60.6699 87.703 60.6699 70C60.6699 52.297 63.4948 43.2831 66.2554 34.594C69.0802 25.7425 71.7125 17.297 71.7125 0H73.5743C73.5743 17.703 70.7495 26.7169 67.9888 35.406C65.164 44.2575 62.5318 52.703 62.5318 70C62.5318 87.297 65.164 95.6613 67.9888 104.594C70.7495 113.283 73.5743 122.297 73.5743 140C73.5743 157.703 70.7495 166.717 67.9888 175.406C65.164 184.258 62.5318 192.703 62.5318 210C62.5318 227.297 65.164 235.661 67.9888 244.594C70.7495 253.283 73.5743 262.297 73.5743 280C73.5743 297.703 70.7495 306.717 67.9888 315.406C65.164 324.339 62.5318 332.784 62.5318 350Z" fill="url(#paint2_linear_162_10614)" fill-opacity="0.16"/>
<path d="M83.2686 350H81.4067C81.4067 332.297 84.2316 323.283 86.9922 314.594C89.8171 305.742 92.4493 297.297 92.4493 280C92.4493 262.703 89.8171 254.339 86.9922 245.406C84.2316 236.717 81.4067 227.703 81.4067 210C81.4067 192.297 84.2316 183.283 86.9922 174.594C89.8171 165.743 92.4493 157.297 92.4493 140C92.4493 122.703 89.8171 114.339 86.9922 105.406C84.2316 96.717 81.4067 87.7031 81.4067 70.0001C81.4067 52.297 84.2316 43.2831 86.9922 34.594C89.8171 25.8237 92.4493 17.4595 92.4493 0.162476H94.3111C94.3111 17.8655 91.4863 26.8794 88.7256 35.5685C85.9008 44.42 83.2686 52.8655 83.2686 70.1625C83.2686 87.4594 85.9008 95.8237 88.7256 104.756C91.4863 113.446 94.3111 122.459 94.3111 140.162C94.3111 157.865 91.4863 166.879 88.7256 175.568C85.9008 184.42 83.2686 192.865 83.2686 210.162C83.2686 227.459 85.9008 235.824 88.7256 244.756C91.4863 253.446 94.3111 262.459 94.3111 280.162C94.3111 297.865 91.4863 306.879 88.7256 315.568C85.9008 324.339 83.2686 332.784 83.2686 350Z" fill="url(#paint3_linear_162_10614)" fill-opacity="0.16"/>
<path d="M104.005 350H102.144C102.144 332.297 104.968 323.283 107.729 314.594C110.554 305.742 113.186 297.297 113.186 280C113.186 262.703 110.554 254.339 107.729 245.406C104.968 236.717 102.144 227.703 102.144 210C102.144 192.297 104.968 183.283 107.729 174.594C110.554 165.742 113.186 157.297 113.186 140C113.186 122.703 110.554 114.339 107.729 105.406C104.968 96.7169 102.144 87.703 102.144 70C102.144 52.297 104.968 43.2831 107.729 34.594C110.554 25.7425 113.186 17.297 113.186 0H115.048C115.048 17.703 112.223 26.7169 109.462 35.406C106.638 44.2575 104.005 52.703 104.005 70C104.005 87.297 106.638 95.6613 109.462 104.594C112.223 113.283 115.048 122.297 115.048 140C115.048 157.703 112.223 166.717 109.462 175.406C106.638 184.258 104.005 192.703 104.005 210C104.005 227.297 106.638 235.661 109.462 244.594C112.223 253.283 115.048 262.297 115.048 280C115.048 297.703 112.223 306.717 109.462 315.406C106.702 324.339 104.005 332.784 104.005 350Z" fill="url(#paint4_linear_162_10614)" fill-opacity="0.16"/>
<path d="M124.807 350H122.945C122.945 332.297 125.77 323.283 128.53 314.594C131.355 305.742 133.987 297.297 133.987 280C133.987 262.703 131.355 254.339 128.53 245.406C125.77 236.717 122.945 227.703 122.945 210C122.945 192.297 125.77 183.283 128.53 174.594C131.355 165.742 133.987 157.297 133.987 140C133.987 122.703 131.355 114.339 128.53 105.406C125.77 96.7169 122.945 87.703 122.945 70C122.945 52.297 125.77 43.2831 128.53 34.594C131.355 25.7425 133.987 17.297 133.987 0H135.849C135.849 17.703 133.024 26.7169 130.264 35.406C127.439 44.2575 124.807 52.703 124.807 70C124.807 87.297 127.439 95.6613 130.264 104.594C133.024 113.283 135.849 122.297 135.849 140C135.849 157.703 133.024 166.717 130.264 175.406C127.439 184.258 124.807 192.703 124.807 210C124.807 227.297 127.439 235.661 130.264 244.594C133.024 253.283 135.849 262.297 135.849 280C135.849 297.703 133.024 306.717 130.264 315.406C127.439 324.339 124.807 332.784 124.807 350Z" fill="url(#paint5_linear_162_10614)" fill-opacity="0.16"/>
<path d="M145.543 350H143.682C143.682 332.297 146.506 323.283 149.267 314.594C152.092 305.742 154.724 297.297 154.724 280C154.724 262.703 152.092 254.339 149.267 245.406C146.506 236.717 143.682 227.703 143.682 210C143.682 192.297 146.506 183.283 149.267 174.594C152.092 165.743 154.724 157.297 154.724 140C154.724 122.703 152.092 114.339 149.267 105.406C146.506 96.717 143.682 87.7031 143.682 70.0001C143.682 52.297 146.506 43.2831 149.267 34.594C152.092 25.8237 154.724 17.4595 154.724 0.162476H156.586C156.586 17.8655 153.761 26.8794 151.001 35.5685C148.176 44.42 145.543 52.8655 145.543 70.1625C145.543 87.4594 148.176 95.8237 151.001 104.756C153.761 113.446 156.586 122.459 156.586 140.162C156.586 157.865 153.761 166.879 151.001 175.568C148.176 184.42 145.543 192.865 145.543 210.162C145.543 227.459 148.176 235.824 151.001 244.756C153.761 253.446 156.586 262.459 156.586 280.162C156.586 297.865 153.761 306.879 151.001 315.568C148.176 324.339 145.543 332.784 145.543 350Z" fill="url(#paint6_linear_162_10614)" fill-opacity="0.16"/>
<path d="M166.345 350H164.483C164.483 332.297 167.308 323.283 170.068 314.594C172.893 305.742 175.525 297.297 175.525 280C175.525 262.703 172.893 254.339 170.068 245.406C167.308 236.717 164.483 227.703 164.483 210C164.483 192.297 167.308 183.283 170.068 174.594C172.893 165.742 175.525 157.297 175.525 140C175.525 122.703 172.893 114.339 170.068 105.406C167.308 96.7169 164.483 87.703 164.483 70C164.483 52.297 167.308 43.2831 170.068 34.594C172.893 25.7425 175.525 17.297 175.525 0H177.387C177.387 17.703 174.562 26.7169 171.802 35.406C168.977 44.2575 166.345 52.703 166.345 70C166.345 87.297 168.977 95.6613 171.802 104.594C174.562 113.283 177.387 122.297 177.387 140C177.387 157.703 174.562 166.717 171.802 175.406C168.977 184.258 166.345 192.703 166.345 210C166.345 227.297 168.977 235.661 171.802 244.594C174.562 253.283 177.387 262.297 177.387 280C177.387 297.703 174.562 306.717 171.802 315.406C168.977 324.339 166.345 332.784 166.345 350Z" fill="url(#paint7_linear_162_10614)" fill-opacity="0.16"/>
<path d="M183.038 359H0.834031C0.384937 359 0 359.331 0 359.773C2.30962 388.195 22.0056 412.479 50.0418 424.841C51.8382 425.614 53.8912 426 55.9442 426H128.056C130.109 426 132.098 425.614 133.958 424.841C161.994 412.534 181.69 388.195 184 359.773C183.936 359.331 183.551 359 183.038 359Z" fill="#3A52EE" fill-opacity="0.04"/>
<defs>
<linearGradient id="paint0_linear_162_10614" x1="25.8075" y1="-9" x2="-7.50994" y2="346.902" gradientUnits="userSpaceOnUse">
<stop stop-color="#3A52EE" stop-opacity="0"/>
<stop offset="1" stop-color="#3A52EE"/>
</linearGradient>
<linearGradient id="paint1_linear_162_10614" x1="46.5443" y1="-9" x2="13.2269" y2="346.902" gradientUnits="userSpaceOnUse">
<stop stop-color="#3A52EE" stop-opacity="0"/>
<stop offset="1" stop-color="#3A52EE"/>
</linearGradient>
<linearGradient id="paint2_linear_162_10614" x1="67.3456" y1="-9" x2="34.0281" y2="346.902" gradientUnits="userSpaceOnUse">
<stop stop-color="#3A52EE" stop-opacity="0"/>
<stop offset="1" stop-color="#3A52EE"/>
</linearGradient>
<linearGradient id="paint3_linear_162_10614" x1="88.0824" y1="-8.83335" x2="54.7956" y2="346.906" gradientUnits="userSpaceOnUse">
<stop stop-color="#3A52EE" stop-opacity="0"/>
<stop offset="1" stop-color="#3A52EE"/>
</linearGradient>
<linearGradient id="paint4_linear_162_10614" x1="108.819" y1="-9" x2="75.5018" y2="346.902" gradientUnits="userSpaceOnUse">
<stop stop-color="#3A52EE" stop-opacity="0"/>
<stop offset="1" stop-color="#3A52EE"/>
</linearGradient>
<linearGradient id="paint5_linear_162_10614" x1="129.62" y1="-9" x2="96.303" y2="346.902" gradientUnits="userSpaceOnUse">
<stop stop-color="#3A52EE" stop-opacity="0"/>
<stop offset="1" stop-color="#3A52EE"/>
</linearGradient>
<linearGradient id="paint6_linear_162_10614" x1="150.357" y1="-8.83335" x2="117.07" y2="346.906" gradientUnits="userSpaceOnUse">
<stop stop-color="#3A52EE" stop-opacity="0"/>
<stop offset="1" stop-color="#3A52EE"/>
</linearGradient>
<linearGradient id="paint7_linear_162_10614" x1="171.159" y1="-9" x2="137.841" y2="346.902" gradientUnits="userSpaceOnUse">
<stop stop-color="#3A52EE" stop-opacity="0"/>
<stop offset="1" stop-color="#3A52EE"/>
</linearGradient>
</defs>
</svg>
