<svg width="57" height="57" viewBox="0 0 57 57" fill="none" xmlns="http://www.w3.org/2000/svg">
<path d="M20.5772 56.0095C19.6438 55.5575 19.3667 54.8137 19.3667 53.7929C19.3959 45.845 19.4105 37.897 19.3667 29.9491C19.3522 27.747 19.1626 25.545 19.0167 23.3429C19.0022 23.1095 18.798 22.8616 18.623 22.672C14.6563 18.7054 10.6897 14.7387 6.72299 10.7575C5.13341 9.15328 4.69591 7.06787 5.52716 5.14287C6.91257 1.94912 10.9959 1.19079 13.548 3.68454C15.5022 5.59495 17.4126 7.54912 19.3376 9.4887C19.9355 10.1012 20.6209 10.5533 21.4522 10.772C21.5397 10.8012 21.6272 10.8158 21.7147 10.8304C21.7584 10.8304 21.8167 10.8158 21.9042 10.7866C20.9126 8.99287 20.6209 7.11162 21.1897 5.14287C21.6417 3.59704 22.5167 2.35745 23.8001 1.39495C26.3522 -0.500881 29.823 -0.457131 32.3459 1.48245C34.5188 3.14495 36.2834 6.74704 34.1105 10.845C35.0876 10.6845 35.8605 10.247 36.5167 9.60537C37.8292 8.30745 39.1272 7.00954 40.4251 5.71162C41.1542 4.99704 41.8542 4.25329 42.598 3.56787C44.0126 2.25537 45.6897 1.86162 47.5126 2.45954C49.3209 3.04287 50.4438 4.34079 50.8084 6.20745C51.1438 7.95745 50.6042 9.47412 49.3355 10.7429C47.1772 12.8866 45.0334 15.0595 42.8897 17.2033C41.0376 19.0554 39.1709 20.9075 37.3334 22.7887C37.1438 22.9783 37.0126 23.3137 36.9834 23.5908C36.4001 30.4012 36.7209 37.2116 36.648 44.022C36.6188 47.2887 36.6188 50.5408 36.6626 53.8075C36.6772 54.8137 36.3855 55.572 35.4522 56.0241C30.4938 56.0095 25.5355 56.0095 20.5772 56.0095ZM33.4542 27.222C33.5417 25.7491 33.6438 24.3054 33.7022 22.8762C33.7313 22.045 34.0084 21.4033 34.6209 20.8054C38.7334 16.722 42.8167 12.6095 46.9147 8.51162C47.0459 8.38037 47.1772 8.24912 47.2792 8.11787C48.0084 7.1262 47.4834 5.74079 46.2876 5.52204C45.6605 5.40537 45.1647 5.6387 44.7126 6.09079C42.7584 8.04495 40.7897 9.99912 38.8209 11.9533C37.2751 13.4845 35.3938 14.2429 33.2063 14.2429C29.7209 14.2429 26.2501 14.2429 22.7647 14.2429C20.5626 14.2429 18.6813 13.47 17.1209 11.9095C16.3334 11.122 15.5459 10.3345 14.7584 9.54704C13.5772 8.3512 12.3959 7.15537 11.2001 5.97412C10.6459 5.41995 9.88757 5.33245 9.24591 5.68245C8.64799 6.00329 8.26882 6.6887 8.45841 7.3887C8.56049 7.78245 8.82299 8.19079 9.11466 8.48245C12.9355 12.3325 16.7855 16.1679 20.6063 20.0179C22.3855 21.8116 22.1667 21.1991 22.3417 23.897C22.4147 25.0054 22.5022 26.0991 22.5751 27.222C26.2209 27.222 29.7938 27.222 33.4542 27.222ZM33.3522 30.5762C29.7647 30.5762 26.2209 30.5762 22.6917 30.5762C22.6917 37.9845 22.6917 45.3345 22.6917 52.6845C23.9313 52.6845 25.1417 52.6845 26.3667 52.6845C26.3667 51.8533 26.3667 51.0804 26.3667 50.2929C26.3667 46.1075 26.3667 41.9075 26.3667 37.722C26.3667 36.8033 26.9647 36.1179 27.8105 36.0158C28.6272 35.9137 29.4001 36.4679 29.5897 37.2991C29.648 37.5325 29.6334 37.7658 29.6334 37.9991C29.6334 42.6804 29.6334 47.3616 29.6334 52.0575C29.6334 52.2762 29.6334 52.4804 29.6334 52.6991C30.9022 52.6991 32.1126 52.6991 33.323 52.6991C33.3522 45.3054 33.3522 37.9554 33.3522 30.5762ZM27.9709 10.947C30.0855 10.9616 31.8063 9.26995 31.8355 7.16995C31.8501 5.06995 30.1584 3.31995 28.0584 3.30537C25.9292 3.29079 24.2084 4.99704 24.1938 7.14079C24.1938 9.18245 25.9292 10.9325 27.9709 10.947Z" fill="#3A52EE"/>
<path d="M41.7959 56.0096C40.8772 55.5429 40.5418 54.8137 40.5855 53.7929C40.673 52.0137 40.6584 50.22 40.6876 48.4408C40.7314 45.6117 41.9709 43.4533 44.3334 41.9221C44.4355 41.8492 44.5376 41.7908 44.6397 41.7179C41.9855 37.7658 43.8522 34.0179 46.1564 32.5012C48.8834 30.7075 52.4418 31.2325 54.5418 33.7262C56.5397 36.1179 56.7439 40.1575 53.5355 42.8554C54.7459 44.0367 55.548 45.4367 55.8251 47.0992C55.9126 47.595 55.9564 48.12 55.9418 48.6158C55.9272 50.3804 55.8689 52.145 55.8834 53.9242C55.8834 54.9304 55.548 55.6596 54.5709 56.0096C50.3272 56.0096 46.0689 56.0096 41.7959 56.0096ZM52.6751 52.7283C52.6751 51.1825 52.7334 49.7096 52.6605 48.2367C52.5439 45.7721 50.6043 44.0221 48.1543 44.0804C45.8355 44.1387 44.0126 46.0346 43.9689 48.47C43.9397 49.7096 43.9251 50.9492 43.9105 52.1887C43.9105 52.3637 43.9105 52.5387 43.9105 52.7429C46.6959 52.7429 49.4084 52.7429 52.1209 52.7429C52.2668 52.7283 52.4126 52.7283 52.6751 52.7283ZM49.7147 40.8283C51.3918 40.8137 52.748 39.4283 52.7334 37.7512C52.7189 36.0742 51.3334 34.7033 49.6564 34.7033C47.9647 34.7179 46.5939 36.1179 46.6084 37.8387C46.6376 39.5158 47.9939 40.8429 49.7147 40.8283Z" fill="#3A52EE"/>
<path d="M0.0145833 36.9783C0.04375 36.8616 0.102083 36.745 0.116667 36.6283C0.641667 33.6241 3.35417 31.3929 6.43125 31.422C9.49375 31.4512 12.1479 33.77 12.6 36.8033C12.8625 38.5533 12.5562 39.7929 11.3604 41.7033C11.4917 41.7908 11.6083 41.8783 11.7396 41.9658C14.0292 43.4825 15.2542 45.597 15.3271 48.3533C15.3708 50.1762 15.3417 51.9991 15.4292 53.8075C15.4729 54.8283 15.1521 55.572 14.2187 56.0241C9.94583 56.0241 5.6875 56.0241 1.41458 56.0241C0.4375 55.6595 0.0729167 54.945 0.116667 53.9387C0.145833 53.1512 0.116667 52.3783 0.102083 51.5908C0.0729167 50.6575 0.0291667 49.7387 0 48.82C0 48.6304 0 48.4554 0 48.2658C0.0291667 48.0908 0.0729167 47.9158 0.0875 47.7408C0.189583 46.4866 0.597917 45.32 1.3125 44.2845C1.64792 43.7741 2.07083 43.322 2.46458 42.8262C1.58958 42.1262 0.904167 41.2512 0.48125 40.2012C0.277083 39.7054 0.160417 39.1658 0 38.6554C0.0145833 38.072 0.0145833 37.5325 0.0145833 36.9783ZM12.075 52.7137C12.075 51.7366 12.0896 50.8033 12.075 49.8845C12.0604 49.1554 12.1042 48.4116 11.9875 47.7116C11.5937 45.3929 9.55208 43.8762 7.21875 44.1095C5.00208 44.3137 3.33958 46.2387 3.35417 48.572C3.35417 49.8408 3.38333 51.1241 3.4125 52.3929C3.4125 52.495 3.44167 52.597 3.45625 52.7137C6.34375 52.7137 9.1875 52.7137 12.075 52.7137ZM6.27083 40.8283C7.99167 40.8575 9.3625 39.5595 9.40625 37.8679C9.45 36.1616 8.09375 34.7325 6.40208 34.7033C4.73958 34.6741 3.325 36.0304 3.28125 37.7075C3.26667 39.3991 4.60833 40.7991 6.27083 40.8283Z" fill="#3A52EE"/>
<path d="M2.66881 25.9679C1.76465 25.9679 1.09381 25.3991 0.962562 24.5825C0.845895 23.8095 1.29798 23.0075 2.0709 22.7887C3.25215 22.4533 4.44798 22.147 5.6584 21.8991C6.59173 21.695 7.39381 22.2491 7.59798 23.1387C7.78756 24.0137 7.29173 24.8304 6.3584 25.0783C5.25006 25.37 4.14173 25.647 3.0334 25.9241C2.88756 25.9533 2.74173 25.9533 2.66881 25.9679Z" fill="#3A52EE"/>
<path d="M53.2583 25.9679C53.0542 25.9242 52.7042 25.8367 52.3542 25.7492C51.4354 25.5158 50.5167 25.3117 49.6125 25.0637C48.7521 24.8158 48.2708 24.0137 48.4312 23.1825C48.6062 22.3221 49.35 21.7242 50.225 21.8992C51.5229 22.1471 52.8062 22.4825 54.075 22.8617C54.8479 23.095 55.2125 23.9262 55.0375 24.7137C54.8771 25.4575 54.2208 25.9679 53.2583 25.9679Z" fill="#3A52EE"/>
<path d="M4.7979 17.8012C4.52082 17.7137 4.24373 17.6408 3.98123 17.5241C2.98957 17.0283 2.01248 16.5178 1.0354 15.9928C0.145816 15.5116 -0.189601 14.5637 0.247899 13.7324C0.685399 12.9158 1.6479 12.6241 2.55207 13.0908C3.5729 13.6158 4.59373 14.1262 5.5854 14.6803C6.31457 15.0741 6.60623 15.8324 6.38748 16.5762C6.18332 17.2908 5.57082 17.7428 4.7979 17.8012Z" fill="#3A52EE"/>
<path d="M51.3334 17.7428C50.4729 17.7428 49.8459 17.2907 49.6271 16.5762C49.4229 15.8762 49.6709 15.1032 50.3417 14.7387C51.4354 14.1262 52.5438 13.5428 53.6667 13.0032C54.4542 12.6241 55.3729 12.9741 55.7667 13.7178C56.1459 14.447 55.9563 15.4095 55.2125 15.8324C54.075 16.4887 52.9084 17.0574 51.7417 17.6407C51.5959 17.7283 51.4063 17.7282 51.3334 17.7428Z" fill="#3A52EE"/>
</svg>
