<svg width="189" height="166" viewBox="0 0 189 166" fill="none" xmlns="http://www.w3.org/2000/svg">
<path d="M1.76186 89.0482C16.0571 89.7417 31.8644 84.5542 46.0705 82.7105C60.8685 80.6966 75.8366 79.2744 90.8695 78.6345C121.928 76.9088 153.056 78.2067 183.807 81.5353C187.297 81.9731 188.493 76.6636 185.003 76.2258C153.766 72.8769 122.342 71.6641 90.6914 73.56C74.4749 74.5403 58.3232 76.3029 42.0459 78.7424C29.1935 80.8374 13.1675 81.9232 1.31605 88.0551C0.914786 88.3307 1.27549 89.0279 1.76186 89.0482Z" fill="#3A52EE"/>
<path d="M32.1521 91.6796C66.7739 83.9636 102.376 80.7708 137.902 81.7649C139.361 81.8258 139.462 79.3939 137.813 79.2277C101.991 78.3187 66.7294 82.695 32.067 91.3837C31.8765 91.2783 31.9616 91.5742 32.1521 91.6796Z" fill="#3A52EE"/>
</svg>
