<svg width="18" height="14" viewBox="0 0 18 14" fill="none" xmlns="http://www.w3.org/2000/svg">
<path d="M16.875 7.91699H1.125C0.503684 7.91699 0 7.38533 0 6.72949C0 6.07366 0.503684 5.54199 1.125 5.54199H16.875C17.4963 5.54199 18 6.07366 18 6.72949C18 7.38533 17.4963 7.91699 16.875 7.91699Z" fill="#3A52EE"/>
<path d="M1.125 11.0835H16.875C17.4963 11.0835 18 11.6152 18 12.271C18 12.9268 17.4963 13.4585 16.875 13.4585H1.125C0.503684 13.4585 0 12.9268 0 12.271C0 11.6152 0.503684 11.0835 1.125 11.0835Z" fill="#3A52EE"/>
<path d="M16.875 2.375H1.125C0.503684 2.375 0 1.84333 0 1.1875C0 0.531666 0.503684 0 1.125 0H16.875C17.4963 0 18 0.531666 18 1.1875C18 1.84333 17.4963 2.375 16.875 2.375Z" fill="#3A52EE"/>
</svg>
