<svg width="22" height="22" viewBox="0 0 22 22" fill="none" xmlns="http://www.w3.org/2000/svg">
<g clip-path="url(#clip0_85_5839)">
<path d="M11 11C12.0878 11 13.1512 10.6774 14.0556 10.0731C14.9601 9.46874 15.6651 8.60976 16.0813 7.60476C16.4976 6.59977 16.6065 5.4939 16.3943 4.42701C16.1821 3.36011 15.6583 2.3801 14.8891 1.61092C14.1199 0.841726 13.1399 0.317902 12.073 0.105683C11.0061 -0.106535 9.90023 0.00238307 8.89524 0.418665C7.89025 0.834947 7.03126 1.5399 6.42692 2.44437C5.82257 3.34884 5.5 4.41221 5.5 5.5C5.50146 6.95825 6.08139 8.35635 7.11252 9.38748C8.14366 10.4186 9.54176 10.9985 11 11ZM11 1.83334C11.7252 1.83334 12.4341 2.04838 13.0371 2.45128C13.6401 2.85418 14.11 3.42683 14.3876 4.09683C14.6651 4.76683 14.7377 5.50407 14.5962 6.21533C14.4547 6.9266 14.1055 7.57994 13.5927 8.09273C13.0799 8.60552 12.4266 8.95474 11.7153 9.09622C11.0041 9.23769 10.2668 9.16508 9.59683 8.88756C8.92683 8.61004 8.35418 8.14007 7.95128 7.53709C7.54838 6.93411 7.33333 6.2252 7.33333 5.5C7.33333 4.52754 7.71964 3.59491 8.40728 2.90728C9.09491 2.21964 10.0275 1.83334 11 1.83334V1.83334Z" fill="white"/>
<path d="M11 12.833C8.81271 12.8354 6.7157 13.7054 5.16905 15.2521C3.6224 16.7987 2.75243 18.8957 2.75 21.083C2.75 21.3261 2.84658 21.5593 3.01849 21.7312C3.19039 21.9031 3.42355 21.9997 3.66667 21.9997C3.90978 21.9997 4.14294 21.9031 4.31485 21.7312C4.48676 21.5593 4.58333 21.3261 4.58333 21.083C4.58333 19.3812 5.25937 17.7491 6.46273 16.5457C7.66609 15.3424 9.29819 14.6663 11 14.6663C12.7018 14.6663 14.3339 15.3424 15.5373 16.5457C16.7406 17.7491 17.4167 19.3812 17.4167 21.083C17.4167 21.3261 17.5132 21.5593 17.6852 21.7312C17.8571 21.9031 18.0902 21.9997 18.3333 21.9997C18.5764 21.9997 18.8096 21.9031 18.9815 21.7312C19.1534 21.5593 19.25 21.3261 19.25 21.083C19.2476 18.8957 18.3776 16.7987 16.831 15.2521C15.2843 13.7054 13.1873 12.8354 11 12.833V12.833Z" fill="white"/>
</g>
<defs>
<clipPath id="clip0_85_5839">
<rect width="22" height="22" fill="white"/>
</clipPath>
</defs>
</svg>
